<svg viewBox="0 0 216 40" fill="none" xmlns="http://www.w3.org/2000/svg">
  <g clip-path="url(#clip0_7075_2477)">
    <path d="M0.205602 35.6139C0.0598208 36.3806 1.33362e-05 37.0671 0.0486069 37.6354C-0.0710081 37.8642 0.0299171 38.1998 0.366334 38.2227C5.64435 38.524 10.9635 38.2837 16.2639 38.135C11.1018 36.3653 5.63687 35.4843 0.205602 35.6178V35.6139Z" fill="#625D59"/>
    <path d="M14.2342 32.4064C12.2008 31.7504 10.1449 31.1974 8.06286 30.7283C6.13407 30.2935 4.15669 29.8472 2.19425 30.0799C1.41676 31.6245 0.803728 33.2111 0.429932 34.6223C6.72093 34.4964 13.0568 35.7131 18.9179 38.0663C19.2917 38.0587 19.6655 38.0511 20.0393 38.0472C21.9793 38.0205 23.9193 38.0282 25.8556 38.0472C22.3195 35.5377 18.3311 33.726 14.2305 32.4026L14.2342 32.4064Z" fill="#625D59"/>
    <path d="M37.5216 26.8838C33.9033 24.6641 30.1317 22.6617 26.1806 21.1247C23.1491 19.9462 19.557 18.31 16.1479 18.1269C14.8097 19.9805 13.6435 21.9485 12.8286 24.05C17.0488 24.9005 21.1456 26.6015 24.9733 28.5047C30.4307 31.2164 35.4358 34.691 40.198 38.5011C44.4032 38.6842 48.6084 38.8863 52.8099 39.119C48.0627 34.5956 43.1099 30.3125 37.5179 26.8838H37.5216Z" fill="#625D59"/>
    <path d="M49.0347 12.0017C48.1264 10.8232 47.1582 9.69425 46.1453 8.64159C43.4502 5.84977 39.8916 4.09535 36.1125 4C40.7925 5.88028 45.0799 8.74838 49.0384 12.0017H49.0347Z" fill="#625D59"/>
    <path d="M75.2416 32.2271C76.7929 34.691 77.9741 37.3417 79.1478 40C79.2412 40 79.331 40 79.4207 40C79.9627 40 80.1234 39.4012 79.9029 39.0427C79.1029 36.9832 78.2357 34.9808 77.1218 33.0777C76.2098 31.5101 75.2304 29.7977 73.9034 28.5581C73.1596 27.864 72.2438 27.4826 71.2756 27.3491C72.7409 28.8518 74.1128 30.4498 75.2379 32.231L75.2416 32.2271Z" fill="#625D59"/>
    <path d="M74.408 32.723C73.0698 30.7435 71.5186 28.9853 69.8552 27.3186C68.4422 27.4597 67.0405 28.0547 65.9976 28.9471C64.8949 26.224 63.9791 23.3101 61.7737 21.2849C60.5102 20.1254 59.0337 19.7135 57.6357 19.9462C60.514 22.8715 63.2277 25.9379 65.7135 29.237C67.3881 31.4605 69.0814 33.7222 70.5654 36.0869C71.384 37.3912 72.3035 38.6193 73.0511 39.9542C74.7369 39.9733 76.4228 39.9809 78.1086 39.9847C77.0283 37.479 75.9219 34.9618 74.408 32.7191V32.723Z" fill="#625D59"/>
    <path d="M69.0627 35.6063C67.5077 33.3218 65.9153 31.0639 64.2183 28.8861C61.8446 25.8388 59.2841 22.9859 56.5779 20.2627C55.92 20.5373 55.2995 20.9569 54.7575 21.5175C53.3482 19.683 52.5633 17.2459 51.3335 15.2893C46.1003 10.602 40.2953 6.33415 33.6753 4.164C29.9523 4.78186 26.8124 6.78801 24.05 9.27853C26.9582 10.0108 29.7542 11.75 32.296 13.1077C36.6881 15.4533 40.8634 18.2185 44.8182 21.262C48.5375 24.1263 52.0923 27.2194 55.363 30.61C58.1029 33.4514 60.9587 36.4034 63.2127 39.7025C66.1358 39.8322 69.0552 39.9047 71.9783 39.9428C71.1111 38.4286 70.0196 37.0022 69.0627 35.5987V35.6063Z" fill="#625D59"/>
    <path d="M54.6791 31.3118C51.4495 28.0051 48.0068 24.9005 44.3324 22.1163C40.6729 19.3474 36.8864 16.7196 32.8643 14.5266C29.9599 12.9438 26.5845 10.7202 23.183 10.0909C22.5662 10.6859 21.9682 11.2961 21.385 11.9216C19.8375 13.5845 18.2563 15.3427 16.8247 17.2154C19.7515 17.5281 22.6784 18.741 25.3548 19.7517C29.3992 21.2773 33.3017 23.1766 37.0135 25.4154C43.3792 29.2561 48.9525 34.0617 54.3016 39.1915C56.0472 39.2906 57.7966 39.3936 59.5422 39.5042C60.3571 39.5576 61.1757 39.6034 61.9906 39.6415C59.8487 36.6361 57.2135 33.8977 54.6791 31.3004V31.3118Z" fill="#625D59"/>
    <path d="M12.6419 24.0195C11.0234 22.1964 9.17307 22.307 7.3938 23.4855C9.15812 23.4855 10.9112 23.68 12.6419 24.0195Z" fill="#625D59"/>
    <path d="M24.9995 29.6184C19.1384 26.7045 12.7427 24.1759 6.12651 24.5039C4.88551 25.6824 3.71926 27.3033 2.74365 29.0425C4.27996 28.9662 5.83121 29.2217 7.34509 29.5574C9.75234 30.0875 12.1484 30.671 14.4883 31.4529C18.9477 32.9365 23.2763 34.8778 27.0666 37.7269C27.19 37.8184 27.2535 37.9443 27.2722 38.0701C31.0326 38.135 34.7855 38.2723 38.5459 38.4325C34.2921 35.0914 29.8215 32.0174 24.9958 29.6184H24.9995Z" fill="#625D59"/>
  </g>
  <path d="M119 16.88C119.96 25.24 121.8 32.28 125.68 36.24L125.16 37.32C123.4 36.6 122.36 36.8 121.72 37.28C120.96 37.84 120.56 37.76 120.2 36.96C118.6 33.48 117.8 26.2 117.88 19.16C117.52 27.4 115.36 34.48 109.12 38.24L108.32 37.12C113.88 31.6 114.64 24.56 114.64 10.48V5.12C114.64 3.88 114.56 2.64 114.4 1.32C115.2 1.44 115.76 1.4 116.6 1.32C118.64 1.16 120.36 1.56 120.36 2.24C120.36 3 119.4 3.48 118.56 3.64V9C118.56 10.96 118.64 12.6 118.76 14.28C119.6 12.64 120.24 10.68 120.48 8.8C123.08 9.2 124.96 10.4 124.8 11.08C124.64 11.68 123.8 11.72 123.12 11.64C122.56 13.28 120.88 15.36 119 16.88ZM108.24 20.64V29.2C108.24 31.6 108.28 34.24 108.32 36.96C108.32 37.96 108.2 38.08 105.28 38.44C104.48 38.56 104.24 38.28 104.28 37.48C104.4 34.48 104.4 31.68 104.4 29.28V22.12C103.4 25.04 101.8 27.96 99.08 30.36L98.88 30.16L98.92 34.04C98.92 35.64 98.64 36.24 97.84 36.92C96.96 37.64 96.04 38.04 94.8 38.28C93.96 38.4 93.72 38.12 93.68 37.32C93.64 36.72 93.44 36.44 92.8 36.24C91.96 35.92 91.44 35.84 90.48 35.6L90.6 34.12C91.8 34.24 92.36 34.28 93.56 34.28C94.44 34.28 94.64 34.2 94.64 33.16V21.04C94.08 21.28 93.52 21.56 92.96 21.76C93.16 22.76 93.08 23.72 92.6 23.8C91.96 23.96 91 23.2 89.96 19.24C91.6 18.8 93.16 18.28 94.64 17.72V11.44C93.48 11.48 92.56 11.6 91.32 11.88L90.56 9.8C92.36 10.16 93.6 10.24 94.64 10.24V5.84C94.64 4.32 94.56 2.76 94.36 1.4C95.2 1.48 95.8 1.48 96.6 1.4C99.28 1.2 100.8 1.44 100.8 2.28C100.8 3.04 99.76 3.48 98.76 3.68L98.8 10.24H99.12C99.56 9.12 100.16 7.96 100.64 7.96C101.16 7.96 102.84 9.88 102.84 10.76C102.84 11.24 102.6 11.44 102.16 11.44H98.8L98.84 15.88C99.52 15.56 100.2 15.16 100.84 14.8L101.72 15.96C100.84 16.8 99.88 17.64 98.84 18.4L98.88 28.32C101.68 24.4 103.12 19.44 104.12 13.72C103.08 13.76 102.08 13.96 100.92 14.16L100.16 12.12C101.88 12.44 103.2 12.52 104.24 12.52H104.4V6.48C103.32 6.68 102.24 6.8 101.28 6.84L100.96 5.48C104.12 4.72 106.56 3.2 108.24 1.32C110.56 2.48 112.04 3.92 111.76 4.6C111.52 5.12 110.44 5.12 109.52 4.76C109.2 5.04 108.76 5.28 108.24 5.48V12.52H108.36C108.6 11.6 109.44 10.08 109.92 10.08C110.56 10.08 111.92 12 111.92 12.96V13.08C111.96 12.92 112 12.8 112.04 12.64C112.28 11.72 112.36 10.6 112.36 9.36H113.72C113.88 10.48 113.92 12.48 113.84 13.52C113.64 17 112.72 18.96 110.96 18.96C110.04 18.96 109.36 18.36 109.36 17.28C109.36 16.32 109.6 15.8 110.4 15.24C110.92 14.88 111.4 14.28 111.68 13.64C111.6 13.68 111.44 13.72 111.24 13.72H108.24V17.64C109.12 18.48 110.04 19.48 110.64 20.32C111.36 21.24 111.72 21.92 111.68 23.04C111.64 24.2 111.08 25.4 110.52 25.44C110.16 25.48 110 25.12 109.84 24.6C109.4 23.32 108.84 21.92 108.24 20.64ZM166.88 15.72C167.76 15.72 169.92 18.08 169.92 18.96C169.92 19.56 169.68 19.72 169.12 19.72H160.88L160.92 33.36C160.92 35.12 160.56 35.72 159.48 36.56C158.36 37.44 157.24 38.04 155.44 38.36C154.56 38.48 154.2 38.28 154.08 37.24C153.96 36.16 153.68 35.96 152.76 35.72C151.56 35.4 150.52 35.2 148.68 34.88L148.76 33.36C150.92 33.52 153.36 33.64 154.92 33.68C156.12 33.68 156.4 33.32 156.4 32.12V19.72H154.32C152.6 19.72 151.32 19.88 149.28 20.16L148.76 18.8C148.44 20.56 147.96 22.32 147.36 24.04C147.72 24.2 148.08 24.32 148.44 24.48C149.92 25.12 150.52 25.84 150.72 27.24C151 28.96 150.92 30.44 150.36 30.72C149.88 30.92 149.52 30.8 149 30.28C148.04 29.32 146.92 28.36 145.8 27.48C143.56 31.64 140.08 35.2 134.8 37.32L134.16 35.96C138.56 33.12 141.24 29.52 142.88 25.44C142.16 24.96 141.44 24.52 140.72 24.12C140.56 24.8 140.4 25.44 140.2 26.08C139.96 26.88 139.84 26.96 137.04 27.16C136 27.2 135.8 26.72 136.04 25.92C137.16 22.08 137.96 17.92 138.68 13.88C138.8 13.2 138.88 12.52 139 11.8C137.84 11.84 136.88 11.96 135.52 12.24L134.76 10.16C136.64 10.44 137.84 10.56 139.16 10.6C139.52 7.52 139.68 4.36 139.72 1.32C142.32 1.12 145.8 1.48 145.8 2.56C145.8 3.48 144.6 3.88 143.84 3.96C143.72 5.92 143.48 8.2 143.2 10.6H144.96C145.48 9.88 146.32 8.96 147.16 8.96C148.2 8.96 150.8 10.36 150.8 11.32C150.8 12.24 150.08 12.48 149.48 12.72C149.4 14.52 149.2 16.36 148.88 18.16C150.96 18.48 152.2 18.52 153.76 18.52H156.4V13.64C156.4 12.72 156.36 12.04 156.2 11C157.04 11.12 157.6 11.08 158.32 11C158.56 10.96 158.76 10.96 159 10.96C160.36 9.36 161.48 7.12 161.84 5.36H155.72C154.08 5.36 152.84 5.52 150.72 5.8L149.96 3.76C152.36 4.12 153.64 4.16 155.2 4.16H161.48C162.32 3.2 163.32 2.4 164.2 2.4C165.16 2.4 167.88 4.24 167.88 5.36C167.88 6.32 166.96 6.6 165.96 6.72C164.96 8.4 163.32 10.04 161.64 11.24C162.44 11.48 163 11.84 163 12.2C163 12.96 161.92 13.56 160.88 13.68V18.52H164.56C165 17.52 166.12 15.72 166.88 15.72ZM141.2 22.16C142 22.36 142.88 22.56 143.76 22.84C144.76 19.4 145.16 15.68 145.36 11.8H143.04L142.56 14.92C142.16 17.36 141.72 19.8 141.2 22.16ZM198 9.32C198.88 9.32 201.28 10.72 201.28 11.44C201.28 12.2 200.88 12.52 200.36 12.8C200.44 19.44 200.28 26.6 199.56 31.36C199.28 33.44 198.96 34.2 198.04 35C197.16 35.8 196.04 36.24 194.96 36.4C194.04 36.48 193.68 36.24 193.6 35.28C193.52 34.36 193.44 34.12 192.72 33.88L190.68 33.24L190.88 31.64C191.92 31.76 192.84 31.88 193.92 31.92C194.92 31.96 195.36 31.72 195.56 30.4C196.36 25.2 196.6 19.08 196.44 11.92H194.96C194.8 24.16 192.96 32.96 184.08 37.64L183.24 36.28C189.6 30.92 190.8 26.04 191 11.96C190.24 12.04 189.52 12.12 188.84 12.28L189.04 24.48C189.04 25.36 188.88 25.44 186.32 26.04C185.6 26.24 185.36 25.96 185.36 25.24V24.08H183.28V27.28C183.28 28.24 183.08 28.32 180.48 29C179.6 29.2 179.36 28.8 179.4 28.04C179.56 20.92 179.64 13.56 179.64 7.96C179.64 7 179.6 5.92 179.44 4.72C180.68 4.88 182.04 5.28 183.04 5.72H184.88C185.36 5.2 186.2 4.48 186.92 4.48C187.76 4.52 189.76 5.84 189.76 6.56C189.76 7.16 189.32 7.52 188.76 7.72L188.8 10.4C189.64 10.52 190.36 10.64 191 10.68C191.04 9.08 191.04 7.4 191.04 5.6C191.04 4.04 191 2.76 190.8 1.36C191.6 1.48 192.24 1.44 193 1.36C195.2 1.2 197 1.48 197 2.32C197 3.12 195.84 3.6 194.96 3.76V10.16V10.72H196.04C196.48 10.12 197.28 9.32 198 9.32ZM212.72 7.8C212.72 8.44 212.24 8.8 211.72 9.04L212.08 32.64C212.08 33.56 211.8 33.64 208.88 34.2C208.08 34.32 207.8 34.08 207.8 33.24V30.4H205.8V34.12C205.8 34.96 205.64 35.04 202.72 35.52C201.88 35.68 201.64 36 201.64 34.64C201.84 26 201.96 19.32 201.96 9.32C201.96 8.28 201.88 7.16 201.72 5.92C203.12 6.08 204.6 6.48 205.68 6.96H207.4C207.88 6.36 208.8 5.56 209.52 5.56C210.4 5.56 212.72 7 212.72 7.8ZM183.28 6.92V22.88H185.36V6.92H183.28ZM205.8 8.16V29.2H207.8V8.16H205.8Z" fill="#625D59"/>
  <defs>
    <clipPath id="clip0_7075_2477">
      <rect width="80" height="36" fill="white" transform="translate(0 4)"/>
    </clipPath>
  </defs>
</svg>
