<svg viewBox="0 0 147 46" fill="none" xmlns="http://www.w3.org/2000/svg">
  <path d="M35.2 19.256C36.352 29.288 38.56 37.736 43.216 42.488L42.592 43.784C40.48 42.92 39.232 43.16 38.464 43.736C37.552 44.408 37.072 44.312 36.64 43.352C34.72 39.176 33.76 30.44 33.856 21.992C33.424 31.88 30.832 40.376 23.344 44.888L22.384 43.544C29.056 36.92 29.968 28.472 29.968 11.576V5.144C29.968 3.656 29.872 2.168 29.68 0.583997C30.64 0.727998 31.312 0.679998 32.32 0.583997C34.768 0.391999 36.832 0.871999 36.832 1.688C36.832 2.6 35.68 3.176 34.672 3.368V9.8C34.672 12.152 34.768 14.12 34.912 16.136C35.92 14.168 36.688 11.816 36.976 9.56C40.096 10.04 42.352 11.48 42.16 12.296C41.968 13.016 40.96 13.064 40.144 12.968C39.472 14.936 37.456 17.432 35.2 19.256ZM22.288 23.768V34.04C22.288 36.92 22.336 40.088 22.384 43.352C22.384 44.552 22.24 44.696 18.736 45.128C17.776 45.272 17.488 44.936 17.536 43.976C17.68 40.376 17.68 37.016 17.68 34.136V25.544C16.48 29.048 14.56 32.552 11.296 35.432L11.056 35.192L11.104 39.848C11.104 41.768 10.768 42.488 9.808 43.304C8.752 44.168 7.648 44.648 6.16 44.936C5.152 45.08 4.864 44.744 4.816 43.784C4.768 43.064 4.528 42.728 3.76 42.488C2.752 42.104 2.128 42.008 0.976 41.72L1.12 39.944C2.56 40.088 3.232 40.136 4.672 40.136C5.728 40.136 5.968 40.04 5.968 38.792V24.248C5.296 24.536 4.624 24.872 3.952 25.112C4.192 26.312 4.096 27.464 3.52 27.56C2.752 27.752 1.6 26.84 0.352 22.088C2.32 21.56 4.192 20.936 5.968 20.264V12.728C4.576 12.776 3.472 12.92 1.984 13.256L1.072 10.76C3.232 11.192 4.72 11.288 5.968 11.288V6.008C5.968 4.184 5.872 2.312 5.632 0.679998C6.64 0.775997 7.36 0.775997 8.32 0.679998C11.536 0.439999 13.36 0.727998 13.36 1.736C13.36 2.648 12.112 3.176 10.912 3.416L10.96 11.288H11.344C11.872 9.944 12.592 8.552 13.168 8.552C13.792 8.552 15.808 10.856 15.808 11.912C15.808 12.488 15.52 12.728 14.992 12.728H10.96L11.008 18.056C11.824 17.672 12.64 17.192 13.408 16.76L14.464 18.152C13.408 19.16 12.256 20.168 11.008 21.08L11.056 32.984C14.416 28.28 16.144 22.328 17.344 15.464C16.096 15.512 14.896 15.752 13.504 15.992L12.592 13.544C14.656 13.928 16.24 14.024 17.488 14.024H17.68V6.776C16.384 7.016 15.088 7.16 13.936 7.208L13.552 5.576C17.344 4.664 20.272 2.84 22.288 0.583997C25.072 1.976 26.848 3.704 26.512 4.52C26.224 5.144 24.928 5.144 23.824 4.712C23.44 5.048 22.912 5.336 22.288 5.576V14.024H22.432C22.72 12.92 23.728 11.096 24.304 11.096C25.072 11.096 26.704 13.4 26.704 14.552V14.696C26.752 14.504 26.8 14.36 26.848 14.168C27.136 13.064 27.232 11.72 27.232 10.232H28.864C29.056 11.576 29.104 13.976 29.008 15.224C28.768 19.4 27.664 21.752 25.552 21.752C24.448 21.752 23.632 21.032 23.632 19.736C23.632 18.584 23.92 17.96 24.88 17.288C25.504 16.856 26.08 16.136 26.416 15.368C26.32 15.416 26.128 15.464 25.888 15.464H22.288V20.168C23.344 21.176 24.448 22.376 25.168 23.384C26.032 24.488 26.464 25.304 26.416 26.648C26.368 28.04 25.696 29.48 25.024 29.528C24.592 29.576 24.4 29.144 24.208 28.52C23.68 26.984 23.008 25.304 22.288 23.768ZM91.856 17.864C92.912 17.864 95.504 20.696 95.504 21.752C95.504 22.472 95.216 22.664 94.544 22.664H84.656L84.704 39.032C84.704 41.144 84.272 41.864 82.976 42.872C81.632 43.928 80.288 44.648 78.128 45.032C77.072 45.176 76.64 44.936 76.496 43.688C76.352 42.392 76.016 42.152 74.912 41.864C73.472 41.48 72.224 41.24 70.016 40.856L70.112 39.032C72.704 39.224 75.632 39.368 77.504 39.416C78.944 39.416 79.28 38.984 79.28 37.544V22.664H76.784C74.72 22.664 73.184 22.856 70.736 23.192L70.112 21.56C69.728 23.672 69.152 25.784 68.432 27.848C68.864 28.04 69.296 28.184 69.728 28.376C71.504 29.144 72.224 30.008 72.464 31.688C72.8 33.752 72.704 35.528 72.032 35.864C71.456 36.104 71.024 35.96 70.4 35.336C69.248 34.184 67.904 33.032 66.56 31.976C63.872 36.968 59.696 41.24 53.36 43.784L52.592 42.152C57.872 38.744 61.088 34.424 63.056 29.528C62.192 28.952 61.328 28.424 60.464 27.944C60.272 28.76 60.08 29.528 59.84 30.296C59.552 31.256 59.408 31.352 56.048 31.592C54.8 31.64 54.56 31.064 54.848 30.104C56.192 25.496 57.152 20.504 58.016 15.656C58.16 14.84 58.256 14.024 58.4 13.16C57.008 13.208 55.856 13.352 54.224 13.688L53.312 11.192C55.568 11.528 57.008 11.672 58.592 11.72C59.024 8.024 59.216 4.232 59.264 0.583997C62.384 0.343997 66.56 0.775997 66.56 2.072C66.56 3.176 65.12 3.656 64.208 3.752C64.064 6.104 63.776 8.84 63.44 11.72H65.552C66.176 10.856 67.184 9.752 68.192 9.752C69.44 9.752 72.56 11.432 72.56 12.584C72.56 13.688 71.696 13.976 70.976 14.264C70.88 16.424 70.64 18.632 70.256 20.792C72.752 21.176 74.24 21.224 76.112 21.224H79.28V15.368C79.28 14.264 79.232 13.448 79.04 12.2C80.048 12.344 80.72 12.296 81.584 12.2C81.872 12.152 82.112 12.152 82.4 12.152C84.032 10.232 85.376 7.544 85.808 5.432H78.464C76.496 5.432 75.008 5.624 72.464 5.96L71.552 3.512C74.432 3.944 75.968 3.992 77.84 3.992H85.376C86.384 2.84 87.584 1.88 88.64 1.88C89.792 1.88 93.056 4.088 93.056 5.432C93.056 6.584 91.952 6.92 90.752 7.064C89.552 9.08 87.584 11.048 85.568 12.488C86.528 12.776 87.2 13.208 87.2 13.64C87.2 14.552 85.904 15.272 84.656 15.416V21.224H89.072C89.6 20.024 90.944 17.864 91.856 17.864ZM61.04 25.592C62 25.832 63.056 26.072 64.112 26.408C65.312 22.28 65.792 17.816 66.032 13.16H63.248L62.672 16.904C62.192 19.832 61.664 22.76 61.04 25.592ZM128.4 10.184C129.456 10.184 132.336 11.864 132.336 12.728C132.336 13.64 131.856 14.024 131.232 14.36C131.328 22.328 131.136 30.92 130.272 36.632C129.936 39.128 129.552 40.04 128.448 41C127.392 41.96 126.048 42.488 124.752 42.68C123.648 42.776 123.216 42.488 123.12 41.336C123.024 40.232 122.928 39.944 122.064 39.656L119.616 38.888L119.856 36.968C121.104 37.112 122.208 37.256 123.504 37.304C124.704 37.352 125.232 37.064 125.472 35.48C126.432 29.24 126.72 21.896 126.528 13.304H124.752C124.56 27.992 122.352 38.552 111.696 44.168L110.688 42.536C118.32 36.104 119.76 30.248 120 13.352C119.088 13.448 118.224 13.544 117.408 13.736L117.648 28.376C117.648 29.432 117.456 29.528 114.384 30.248C113.52 30.488 113.232 30.152 113.232 29.288V27.896H110.736V31.736C110.736 32.888 110.496 32.984 107.376 33.8C106.32 34.04 106.032 33.56 106.08 32.648C106.272 24.104 106.368 15.272 106.368 8.552C106.368 7.4 106.32 6.104 106.128 4.664C107.616 4.856 109.248 5.336 110.448 5.864H112.656C113.232 5.24 114.24 4.376 115.104 4.376C116.112 4.424 118.512 6.008 118.512 6.872C118.512 7.592 117.984 8.024 117.312 8.264L117.36 11.48C118.368 11.624 119.232 11.768 120 11.816C120.048 9.896 120.048 7.88 120.048 5.72C120.048 3.848 120 2.312 119.76 0.631999C120.72 0.775997 121.488 0.727998 122.4 0.631999C125.04 0.439999 127.2 0.775997 127.2 1.784C127.2 2.744 125.808 3.32 124.752 3.512V11.192V11.864H126.048C126.576 11.144 127.536 10.184 128.4 10.184ZM146.064 8.36C146.064 9.128 145.488 9.56 144.864 9.848L145.296 38.168C145.296 39.272 144.96 39.368 141.456 40.04C140.496 40.184 140.16 39.896 140.16 38.888V35.48H137.76V39.944C137.76 40.952 137.568 41.048 134.064 41.624C133.056 41.816 132.768 42.2 132.768 40.568C133.008 30.2 133.152 22.184 133.152 10.184C133.152 8.936 133.056 7.592 132.864 6.104C134.544 6.296 136.32 6.776 137.616 7.352H139.68C140.256 6.632 141.36 5.672 142.224 5.672C143.28 5.672 146.064 7.4 146.064 8.36ZM110.736 7.304V26.456H113.232V7.304H110.736ZM137.76 8.792V34.04H140.16V8.792H137.76Z" fill="#625D59"/>
</svg>
