<svg viewBox="0 0 15 15" fill="none" xmlns="http://www.w3.org/2000/svg">
<path d="M8 3.73975C9.96875 3.73975 11.5938 5.36475 11.5938 7.3335C11.5938 9.3335 9.96875 10.9272 8 10.9272C6 10.9272 4.40625 9.3335 4.40625 7.3335C4.40625 5.36475 6 3.73975 8 3.73975ZM8 9.67725C9.28125 9.67725 10.3125 8.646 10.3125 7.3335C10.3125 6.05225 9.28125 5.021 8 5.021C6.6875 5.021 5.65625 6.05225 5.65625 7.3335C5.65625 8.646 6.71875 9.67725 8 9.67725ZM12.5625 3.61475C12.5625 4.0835 12.1875 4.4585 11.7188 4.4585C11.25 4.4585 10.875 4.0835 10.875 3.61475C10.875 3.146 11.25 2.771 11.7188 2.771C12.1875 2.771 12.5625 3.146 12.5625 3.61475ZM14.9375 4.4585C15 5.61475 15 9.0835 14.9375 10.2397C14.875 11.3647 14.625 12.3335 13.8125 13.1772C13 13.9897 12 14.2397 10.875 14.3022C9.71875 14.3647 6.25 14.3647 5.09375 14.3022C3.96875 14.2397 3 13.9897 2.15625 13.1772C1.34375 12.3335 1.09375 11.3647 1.03125 10.2397C0.96875 9.0835 0.96875 5.61475 1.03125 4.4585C1.09375 3.3335 1.34375 2.3335 2.15625 1.521C3 0.708496 3.96875 0.458496 5.09375 0.395996C6.25 0.333496 9.71875 0.333496 10.875 0.395996C12 0.458496 13 0.708496 13.8125 1.521C14.625 2.3335 14.875 3.3335 14.9375 4.4585ZM13.4375 11.4585C13.8125 10.5522 13.7188 8.36475 13.7188 7.3335C13.7188 6.3335 13.8125 4.146 13.4375 3.2085C13.1875 2.61475 12.7188 2.11475 12.125 1.896C11.1875 1.521 9 1.61475 8 1.61475C6.96875 1.61475 4.78125 1.521 3.875 1.896C3.25 2.146 2.78125 2.61475 2.53125 3.2085C2.15625 4.146 2.25 6.3335 2.25 7.3335C2.25 8.36475 2.15625 10.5522 2.53125 11.4585C2.78125 12.0835 3.25 12.5522 3.875 12.8022C4.78125 13.1772 6.96875 13.0835 8 13.0835C9 13.0835 11.1875 13.1772 12.125 12.8022C12.7188 12.5522 13.2188 12.0835 13.4375 11.4585Z" fill="#EDF1F9"/>
</svg>
