<svg width="30" height="30" viewBox="0 0 30 30" fill="none" xmlns="http://www.w3.org/2000/svg">
<mask id="mask0_7509_8536" style="mask-type:alpha" maskUnits="userSpaceOnUse" x="3" y="3" width="24" height="24">
<rect x="3" y="3" width="24" height="24" fill="#D9D9D9"/>
</mask>
<g mask="url(#mask0_7509_8536)">
<path d="M7 22V20.2C7 19.6333 7.14583 19.1125 7.4375 18.6375C7.72917 18.1625 8.11667 17.8 8.6 17.55C9.63333 17.0333 10.6833 16.6458 11.75 16.3875C12.8167 16.1292 13.9 16 15 16C15.6167 16 16.225 16.0375 16.825 16.1125C17.425 16.1875 18.025 16.3083 18.625 16.475L16.95 18.175C16.6167 18.125 16.2917 18.0833 15.975 18.05C15.6583 18.0167 15.3333 18 15 18C14.0667 18 13.1417 18.1125 12.225 18.3375C11.3083 18.5625 10.4 18.9 9.5 19.35C9.35 19.4333 9.22917 19.55 9.1375 19.7C9.04583 19.85 9 20.0167 9 20.2V21H15V23H8C7.71667 23 7.47917 22.9042 7.2875 22.7125C7.09583 22.5208 7 22.2833 7 22ZM17 23V21.75C17 21.4833 17.0542 21.2292 17.1625 20.9875C17.2708 20.7458 17.4167 20.5333 17.6 20.35L22.525 15.425C22.675 15.275 22.8417 15.1667 23.025 15.1C23.2083 15.0333 23.3917 15 23.575 15C23.775 15 23.9667 15.0375 24.15 15.1125C24.3333 15.1875 24.5 15.3 24.65 15.45L25.575 16.375C25.7083 16.525 25.8125 16.6917 25.8875 16.875C25.9625 17.0583 26 17.2417 26 17.425C26 17.6083 25.9667 17.7958 25.9 17.9875C25.8333 18.1792 25.725 18.35 25.575 18.5L20.65 23.425C20.4667 23.6083 20.2542 23.75 20.0125 23.85C19.7708 23.95 19.5167 24 19.25 24H18C17.7167 24 17.4792 23.9042 17.2875 23.7125C17.0958 23.5208 17 23.2833 17 23ZM18.5 22.5H19.45L22.475 19.45L22.025 18.975L21.55 18.525L18.5 21.55V22.5ZM22.025 18.975L21.55 18.525L22.475 19.45L22.025 18.975ZM15 15C13.9 15 12.9583 14.6083 12.175 13.825C11.3917 13.0417 11 12.1 11 11C11 9.9 11.3917 8.95833 12.175 8.175C12.9583 7.39167 13.9 7 15 7C16.1 7 17.0417 7.39167 17.825 8.175C18.6083 8.95833 19 9.9 19 11C19 12.1 18.6083 13.0417 17.825 13.825C17.0417 14.6083 16.1 15 15 15ZM15 13C15.55 13 16.0208 12.8042 16.4125 12.4125C16.8042 12.0208 17 11.55 17 11C17 10.45 16.8042 9.97917 16.4125 9.5875C16.0208 9.19583 15.55 9 15 9C14.45 9 13.9792 9.19583 13.5875 9.5875C13.1958 9.97917 13 10.45 13 11C13 11.55 13.1958 12.0208 13.5875 12.4125C13.9792 12.8042 14.45 13 15 13Z" fill="#B1AAA5"/>
</g>
</svg>
