<svg width="65" height="64" viewBox="0 0 65 64" fill="none" xmlns="http://www.w3.org/2000/svg">
<mask id="mask0_7395_16899" style="mask-type:alpha" maskUnits="userSpaceOnUse" x="0" y="0" width="65" height="64">
<rect x="0.75" width="64" height="64" fill="#D9D9D9"/>
</mask>
<g mask="url(#mask0_7395_16899)">
<path d="M19.4167 37.3334V53.3334C19.4167 54.089 19.1612 54.7223 18.65 55.2334C18.1389 55.7445 17.5056 56.0001 16.75 56.0001C15.9945 56.0001 15.3612 55.7445 14.85 55.2334C14.3389 54.7223 14.0834 54.089 14.0834 53.3334V13.3334C14.0834 12.5779 14.3389 11.9445 14.85 11.4334C15.3612 10.9223 15.9945 10.6667 16.75 10.6667H35.8834C36.5056 10.6667 37.0612 10.8667 37.55 11.2667C38.0389 11.6667 38.35 12.1779 38.4834 12.8001L39.15 16.0001H51.4167C52.1723 16.0001 52.8056 16.2556 53.3167 16.7667C53.8278 17.2779 54.0834 17.9112 54.0834 18.6667V40.0001C54.0834 40.7556 53.8278 41.389 53.3167 41.9001C52.8056 42.4112 52.1723 42.6667 51.4167 42.6667H37.6167C36.9945 42.6667 36.4389 42.4667 35.95 42.0667C35.4612 41.6667 35.15 41.1556 35.0167 40.5334L34.35 37.3334H19.4167ZM39.8167 37.3334H48.75V21.3334H36.95C36.3278 21.3334 35.7723 21.1334 35.2834 20.7334C34.7945 20.3334 34.4834 19.8223 34.35 19.2001L33.6834 16.0001H19.4167V32.0001H36.55C37.1723 32.0001 37.7278 32.2001 38.2167 32.6001C38.7056 33.0001 39.0167 33.5112 39.15 34.1334L39.8167 37.3334Z" fill="white"/>
</g>
</svg>
