<svg width="44" height="32" viewBox="0 0 44 32" fill="none" xmlns="http://www.w3.org/2000/svg">
<path d="M0.00012207 29.9998V23.9998C0.00012207 22.8664 0.391789 21.9164 1.17512 21.1498C1.95846 20.3831 2.90012 19.9998 4.00012 19.9998H10.5501C11.2168 19.9998 11.8501 20.1664 12.4501 20.4998C13.0501 20.8331 13.5335 21.2831 13.9001 21.8498C14.8668 23.1498 16.0585 24.1664 17.4751 24.8998C18.8918 25.6331 20.4001 25.9998 22.0001 25.9998C23.6335 25.9998 25.1585 25.6331 26.5751 24.8998C27.9918 24.1664 29.1668 23.1498 30.1001 21.8498C30.5335 21.2831 31.0418 20.8331 31.6251 20.4998C32.2085 20.1664 32.8168 19.9998 33.4501 19.9998H40.0001C41.1335 19.9998 42.0835 20.3831 42.8501 21.1498C43.6168 21.9164 44.0001 22.8664 44.0001 23.9998V29.9998C44.0001 30.5664 43.8085 31.0414 43.4251 31.4248C43.0418 31.8081 42.5668 31.9998 42.0001 31.9998H32.0001C31.4335 31.9998 30.9585 31.8081 30.5751 31.4248C30.1918 31.0414 30.0001 30.5664 30.0001 29.9998V27.4498C28.8335 28.2831 27.5751 28.9164 26.2251 29.3498C24.8751 29.7831 23.4668 29.9998 22.0001 29.9998C20.5668 29.9998 19.1668 29.7748 17.8001 29.3248C16.4335 28.8748 15.1668 28.2331 14.0001 27.3998V29.9998C14.0001 30.5664 13.8085 31.0414 13.4251 31.4248C13.0418 31.8081 12.5668 31.9998 12.0001 31.9998H2.00012C1.43346 31.9998 0.958455 31.8081 0.575122 31.4248C0.191789 31.0414 0.00012207 30.5664 0.00012207 29.9998ZM22.0001 23.9998C20.7335 23.9998 19.5335 23.7081 18.4001 23.1248C17.2668 22.5414 16.3168 21.7331 15.5501 20.6998C14.9835 19.8664 14.2751 19.2081 13.4251 18.7248C12.5751 18.2414 11.6501 17.9998 10.6501 17.9998C11.3835 16.7664 12.9335 15.7914 15.3001 15.0748C17.6668 14.3581 19.9001 13.9998 22.0001 13.9998C24.1001 13.9998 26.3335 14.3581 28.7001 15.0748C31.0668 15.7914 32.6168 16.7664 33.3501 17.9998C32.3835 17.9998 31.4668 18.2414 30.6001 18.7248C29.7335 19.2081 29.0168 19.8664 28.4501 20.6998C27.7168 21.7664 26.7835 22.5831 25.6501 23.1498C24.5168 23.7164 23.3001 23.9998 22.0001 23.9998ZM6.00012 17.9998C4.33346 17.9998 2.91679 17.4164 1.75012 16.2498C0.583455 15.0831 0.00012207 13.6664 0.00012207 11.9998C0.00012207 10.2998 0.583455 8.87476 1.75012 7.72476C2.91679 6.57476 4.33346 5.99976 6.00012 5.99976C7.70012 5.99976 9.12512 6.57476 10.2751 7.72476C11.4251 8.87476 12.0001 10.2998 12.0001 11.9998C12.0001 13.6664 11.4251 15.0831 10.2751 16.2498C9.12512 17.4164 7.70012 17.9998 6.00012 17.9998ZM38.0001 17.9998C36.3335 17.9998 34.9168 17.4164 33.7501 16.2498C32.5835 15.0831 32.0001 13.6664 32.0001 11.9998C32.0001 10.2998 32.5835 8.87476 33.7501 7.72476C34.9168 6.57476 36.3335 5.99976 38.0001 5.99976C39.7001 5.99976 41.1251 6.57476 42.2751 7.72476C43.4251 8.87476 44.0001 10.2998 44.0001 11.9998C44.0001 13.6664 43.4251 15.0831 42.2751 16.2498C41.1251 17.4164 39.7001 17.9998 38.0001 17.9998ZM22.0001 11.9998C20.3335 11.9998 18.9168 11.4164 17.7501 10.2498C16.5835 9.08309 16.0001 7.66642 16.0001 5.99976C16.0001 4.29976 16.5835 2.87476 17.7501 1.72476C18.9168 0.574756 20.3335 -0.000244141 22.0001 -0.000244141C23.7001 -0.000244141 25.1251 0.574756 26.2751 1.72476C27.4251 2.87476 28.0001 4.29976 28.0001 5.99976C28.0001 7.66642 27.4251 9.08309 26.2751 10.2498C25.1251 11.4164 23.7001 11.9998 22.0001 11.9998Z" fill="white"/>
</svg>
